<mxfile host="app.diagrams.net" modified="2023-10-25T16:19:02.648Z" agent="Mozilla/5.0 (Windows NT 10.0; Win64; x64) AppleWebKit/537.36 (KHTML, like Gecko) Chrome/118.0.0.0 Safari/537.36" etag="PeKNq8YtEJMxCF-97vp2" version="22.0.6" type="device">
  <diagram name="Страница — 1" id="PRQkY7LDZZ810rS44IFu">
    <mxGraphModel dx="1646" dy="824" grid="1" gridSize="10" guides="1" tooltips="1" connect="1" arrows="1" fold="1" page="1" pageScale="1" pageWidth="827" pageHeight="1169" math="0" shadow="0">
      <root>
        <mxCell id="0" />
        <mxCell id="1" parent="0" />
        <mxCell id="68kr9fZOocLpTPJreRbY-1" value="Клиент&lt;br&gt;" style="shape=umlActor;verticalLabelPosition=bottom;verticalAlign=top;html=1;" parent="1" vertex="1">
          <mxGeometry x="80" y="200" width="30" height="60" as="geometry" />
        </mxCell>
        <mxCell id="68kr9fZOocLpTPJreRbY-2" value="Приложение" style="shape=umlActor;verticalLabelPosition=bottom;verticalAlign=top;html=1;" parent="1" vertex="1">
          <mxGeometry x="80" y="550" width="30" height="60" as="geometry" />
        </mxCell>
        <mxCell id="68kr9fZOocLpTPJreRbY-8" value="Пользовательский слой" style="shape=umlFrame;whiteSpace=wrap;html=1;pointerEvents=0;" parent="1" vertex="1">
          <mxGeometry x="180" y="60" width="310" height="690" as="geometry" />
        </mxCell>
        <mxCell id="68kr9fZOocLpTPJreRbY-11" style="edgeStyle=orthogonalEdgeStyle;rounded=0;orthogonalLoop=1;jettySize=auto;html=1;exitX=0.5;exitY=0.5;exitDx=0;exitDy=0;exitPerimeter=0;entryX=0;entryY=0.9;entryDx=0;entryDy=0;entryPerimeter=0;" parent="1" source="68kr9fZOocLpTPJreRbY-2" target="68kr9fZOocLpTPJreRbY-8" edge="1">
          <mxGeometry relative="1" as="geometry" />
        </mxCell>
        <mxCell id="68kr9fZOocLpTPJreRbY-15" style="edgeStyle=orthogonalEdgeStyle;rounded=0;orthogonalLoop=1;jettySize=auto;html=1;exitX=0.5;exitY=0.5;exitDx=0;exitDy=0;exitPerimeter=0;entryX=-0.004;entryY=0.088;entryDx=0;entryDy=0;entryPerimeter=0;" parent="1" source="68kr9fZOocLpTPJreRbY-1" target="68kr9fZOocLpTPJreRbY-8" edge="1">
          <mxGeometry relative="1" as="geometry" />
        </mxCell>
        <mxCell id="68kr9fZOocLpTPJreRbY-20" value="" style="html=1;verticalAlign=bottom;endArrow=block;curved=0;rounded=0;" parent="1" edge="1">
          <mxGeometry width="80" relative="1" as="geometry">
            <mxPoint x="180" y="120" as="sourcePoint" />
            <mxPoint x="260" y="120" as="targetPoint" />
          </mxGeometry>
        </mxCell>
        <mxCell id="68kr9fZOocLpTPJreRbY-21" value="Вход" style="html=1;whiteSpace=wrap;" parent="1" vertex="1">
          <mxGeometry x="260" y="100" width="60" height="50" as="geometry" />
        </mxCell>
        <mxCell id="68kr9fZOocLpTPJreRbY-32" value="" style="endArrow=none;html=1;edgeStyle=orthogonalEdgeStyle;rounded=0;entryX=0.369;entryY=1.037;entryDx=0;entryDy=0;entryPerimeter=0;" parent="1" edge="1">
          <mxGeometry relative="1" as="geometry">
            <mxPoint x="300" y="150" as="sourcePoint" />
            <mxPoint x="300.02999999999986" y="559.82" as="targetPoint" />
            <Array as="points">
              <mxPoint x="299.86" y="687.97" />
              <mxPoint x="299.86" y="687.97" />
            </Array>
          </mxGeometry>
        </mxCell>
        <mxCell id="68kr9fZOocLpTPJreRbY-36" value="" style="line;strokeWidth=1;fillColor=none;align=left;verticalAlign=middle;spacingTop=-1;spacingLeft=3;spacingRight=3;rotatable=0;labelPosition=right;points=[];portConstraint=eastwest;strokeColor=inherit;" parent="1" vertex="1">
          <mxGeometry x="180" y="680" width="120" height="8" as="geometry" />
        </mxCell>
        <mxCell id="68kr9fZOocLpTPJreRbY-37" value="" style="html=1;verticalAlign=bottom;endArrow=block;curved=0;rounded=0;" parent="1" edge="1">
          <mxGeometry width="80" relative="1" as="geometry">
            <mxPoint x="300" y="229.5" as="sourcePoint" />
            <mxPoint x="340" y="230" as="targetPoint" />
          </mxGeometry>
        </mxCell>
        <mxCell id="68kr9fZOocLpTPJreRbY-62" style="edgeStyle=orthogonalEdgeStyle;rounded=0;orthogonalLoop=1;jettySize=auto;html=1;exitX=1;exitY=0.5;exitDx=0;exitDy=0;entryX=0;entryY=0.5;entryDx=0;entryDy=0;" parent="1" source="68kr9fZOocLpTPJreRbY-39" target="68kr9fZOocLpTPJreRbY-59" edge="1">
          <mxGeometry relative="1" as="geometry">
            <Array as="points">
              <mxPoint x="540" y="230" />
            </Array>
          </mxGeometry>
        </mxCell>
        <mxCell id="68kr9fZOocLpTPJreRbY-39" value="Модуль корзины" style="html=1;whiteSpace=wrap;" parent="1" vertex="1">
          <mxGeometry x="340" y="205" width="50" height="50" as="geometry" />
        </mxCell>
        <mxCell id="68kr9fZOocLpTPJreRbY-40" value="" style="html=1;verticalAlign=bottom;endArrow=block;curved=0;rounded=0;" parent="1" edge="1">
          <mxGeometry width="80" relative="1" as="geometry">
            <mxPoint x="300" y="380" as="sourcePoint" />
            <mxPoint x="340" y="380" as="targetPoint" />
          </mxGeometry>
        </mxCell>
        <mxCell id="68kr9fZOocLpTPJreRbY-63" style="edgeStyle=orthogonalEdgeStyle;rounded=0;orthogonalLoop=1;jettySize=auto;html=1;exitX=1;exitY=0.5;exitDx=0;exitDy=0;" parent="1" source="68kr9fZOocLpTPJreRbY-41" edge="1">
          <mxGeometry relative="1" as="geometry">
            <mxPoint x="480" y="230" as="targetPoint" />
          </mxGeometry>
        </mxCell>
        <mxCell id="68kr9fZOocLpTPJreRbY-41" value="Модуль товаров" style="html=1;whiteSpace=wrap;" parent="1" vertex="1">
          <mxGeometry x="340" y="350" width="50" height="50" as="geometry" />
        </mxCell>
        <mxCell id="68kr9fZOocLpTPJreRbY-42" value="" style="html=1;verticalAlign=bottom;endArrow=block;curved=0;rounded=0;" parent="1" edge="1">
          <mxGeometry width="80" relative="1" as="geometry">
            <mxPoint x="300" y="530" as="sourcePoint" />
            <mxPoint x="340" y="530" as="targetPoint" />
          </mxGeometry>
        </mxCell>
        <mxCell id="68kr9fZOocLpTPJreRbY-64" style="edgeStyle=orthogonalEdgeStyle;rounded=0;orthogonalLoop=1;jettySize=auto;html=1;exitX=1;exitY=0.5;exitDx=0;exitDy=0;" parent="1" source="68kr9fZOocLpTPJreRbY-43" edge="1">
          <mxGeometry relative="1" as="geometry">
            <mxPoint x="480" y="380" as="targetPoint" />
          </mxGeometry>
        </mxCell>
        <mxCell id="68kr9fZOocLpTPJreRbY-43" value="Модуль заказов" style="html=1;whiteSpace=wrap;" parent="1" vertex="1">
          <mxGeometry x="340" y="500" width="50" height="50" as="geometry" />
        </mxCell>
        <mxCell id="68kr9fZOocLpTPJreRbY-46" style="edgeStyle=orthogonalEdgeStyle;rounded=0;orthogonalLoop=1;jettySize=auto;html=1;exitX=0.5;exitY=0.5;exitDx=0;exitDy=0;exitPerimeter=0;entryX=0;entryY=0.75;entryDx=0;entryDy=0;" parent="1" source="68kr9fZOocLpTPJreRbY-2" target="68kr9fZOocLpTPJreRbY-53" edge="1">
          <mxGeometry relative="1" as="geometry">
            <Array as="points">
              <mxPoint x="145" y="580" />
              <mxPoint x="145" y="719" />
              <mxPoint x="340" y="719" />
            </Array>
          </mxGeometry>
        </mxCell>
        <mxCell id="68kr9fZOocLpTPJreRbY-47" value="Модуль обработки заказов" style="shape=umlFrame;whiteSpace=wrap;html=1;pointerEvents=0;" parent="1" vertex="1">
          <mxGeometry x="510" y="60" width="460" height="690" as="geometry" />
        </mxCell>
        <mxCell id="68kr9fZOocLpTPJreRbY-53" value="Модуль управления" style="html=1;whiteSpace=wrap;" parent="1" vertex="1">
          <mxGeometry x="340" y="680" width="50" height="50" as="geometry" />
        </mxCell>
        <mxCell id="68kr9fZOocLpTPJreRbY-56" value="Подсистема работы с корзиной клиента" style="swimlane;fontStyle=0;childLayout=stackLayout;horizontal=1;startSize=26;fillColor=none;horizontalStack=0;resizeParent=1;resizeParentMax=0;resizeLast=0;collapsible=1;marginBottom=0;whiteSpace=wrap;html=1;" parent="1" vertex="1">
          <mxGeometry x="540" y="110" width="140" height="150" as="geometry" />
        </mxCell>
        <mxCell id="68kr9fZOocLpTPJreRbY-57" value="Создание заказа" style="text;strokeColor=none;fillColor=none;align=left;verticalAlign=top;spacingLeft=4;spacingRight=4;overflow=hidden;rotatable=0;points=[[0,0.5],[1,0.5]];portConstraint=eastwest;whiteSpace=wrap;html=1;" parent="68kr9fZOocLpTPJreRbY-56" vertex="1">
          <mxGeometry y="26" width="140" height="26" as="geometry" />
        </mxCell>
        <mxCell id="68kr9fZOocLpTPJreRbY-58" value="Отмена заказа" style="text;strokeColor=none;fillColor=none;align=left;verticalAlign=top;spacingLeft=4;spacingRight=4;overflow=hidden;rotatable=0;points=[[0,0.5],[1,0.5]];portConstraint=eastwest;whiteSpace=wrap;html=1;" parent="68kr9fZOocLpTPJreRbY-56" vertex="1">
          <mxGeometry y="52" width="140" height="26" as="geometry" />
        </mxCell>
        <mxCell id="68kr9fZOocLpTPJreRbY-59" value="Добавление заказа в корзину&lt;br&gt;&lt;br&gt;Просмотр корзины&lt;br&gt;&lt;br&gt;" style="text;strokeColor=none;fillColor=none;align=left;verticalAlign=top;spacingLeft=4;spacingRight=4;overflow=hidden;rotatable=0;points=[[0,0.5],[1,0.5]];portConstraint=eastwest;whiteSpace=wrap;html=1;" parent="68kr9fZOocLpTPJreRbY-56" vertex="1">
          <mxGeometry y="78" width="140" height="72" as="geometry" />
        </mxCell>
        <mxCell id="68kr9fZOocLpTPJreRbY-66" value="Подсистема работы с товарами" style="swimlane;fontStyle=0;childLayout=stackLayout;horizontal=1;startSize=26;fillColor=none;horizontalStack=0;resizeParent=1;resizeParentMax=0;resizeLast=0;collapsible=1;marginBottom=0;whiteSpace=wrap;html=1;" parent="1" vertex="1">
          <mxGeometry x="750" y="110" width="150" height="150" as="geometry" />
        </mxCell>
        <mxCell id="68kr9fZOocLpTPJreRbY-67" value="Получение цены товара" style="text;strokeColor=none;fillColor=none;align=left;verticalAlign=top;spacingLeft=4;spacingRight=4;overflow=hidden;rotatable=0;points=[[0,0.5],[1,0.5]];portConstraint=eastwest;whiteSpace=wrap;html=1;" parent="68kr9fZOocLpTPJreRbY-66" vertex="1">
          <mxGeometry y="26" width="150" height="26" as="geometry" />
        </mxCell>
        <mxCell id="68kr9fZOocLpTPJreRbY-69" value="Получение описания товара&lt;br&gt;" style="text;strokeColor=none;fillColor=none;align=left;verticalAlign=top;spacingLeft=4;spacingRight=4;overflow=hidden;rotatable=0;points=[[0,0.5],[1,0.5]];portConstraint=eastwest;whiteSpace=wrap;html=1;" parent="68kr9fZOocLpTPJreRbY-66" vertex="1">
          <mxGeometry y="52" width="150" height="98" as="geometry" />
        </mxCell>
        <mxCell id="68kr9fZOocLpTPJreRbY-78" value="Подсистема контроля заказов" style="swimlane;fontStyle=0;childLayout=stackLayout;horizontal=1;startSize=26;fillColor=none;horizontalStack=0;resizeParent=1;resizeParentMax=0;resizeLast=0;collapsible=1;marginBottom=0;whiteSpace=wrap;html=1;" parent="1" vertex="1">
          <mxGeometry x="690" y="430" width="140" height="210" as="geometry" />
        </mxCell>
        <mxCell id="68kr9fZOocLpTPJreRbY-79" value="Доставка заказа" style="text;strokeColor=none;fillColor=none;align=left;verticalAlign=top;spacingLeft=4;spacingRight=4;overflow=hidden;rotatable=0;points=[[0,0.5],[1,0.5]];portConstraint=eastwest;whiteSpace=wrap;html=1;" parent="68kr9fZOocLpTPJreRbY-78" vertex="1">
          <mxGeometry y="26" width="140" height="26" as="geometry" />
        </mxCell>
        <mxCell id="68kr9fZOocLpTPJreRbY-80" value="Закрытие заказа" style="text;strokeColor=none;fillColor=none;align=left;verticalAlign=top;spacingLeft=4;spacingRight=4;overflow=hidden;rotatable=0;points=[[0,0.5],[1,0.5]];portConstraint=eastwest;whiteSpace=wrap;html=1;" parent="68kr9fZOocLpTPJreRbY-78" vertex="1">
          <mxGeometry y="52" width="140" height="26" as="geometry" />
        </mxCell>
        <mxCell id="68kr9fZOocLpTPJreRbY-81" value="Подсчет стоимости заказа&amp;nbsp;&lt;br&gt;&lt;br&gt;Добавление товаров&lt;br&gt;&lt;br&gt;Добавление цены&lt;br&gt;&lt;br&gt;Добавление описания" style="text;strokeColor=none;fillColor=none;align=left;verticalAlign=top;spacingLeft=4;spacingRight=4;overflow=hidden;rotatable=0;points=[[0,0.5],[1,0.5]];portConstraint=eastwest;whiteSpace=wrap;html=1;" parent="68kr9fZOocLpTPJreRbY-78" vertex="1">
          <mxGeometry y="78" width="140" height="132" as="geometry" />
        </mxCell>
        <mxCell id="68kr9fZOocLpTPJreRbY-82" value="" style="html=1;verticalAlign=bottom;endArrow=block;curved=0;rounded=0;entryX=0;entryY=0.679;entryDx=0;entryDy=0;entryPerimeter=0;" parent="1" target="68kr9fZOocLpTPJreRbY-83" edge="1">
          <mxGeometry width="80" relative="1" as="geometry">
            <mxPoint x="300" y="610" as="sourcePoint" />
            <mxPoint x="330" y="610" as="targetPoint" />
          </mxGeometry>
        </mxCell>
        <mxCell id="68kr9fZOocLpTPJreRbY-84" style="edgeStyle=orthogonalEdgeStyle;rounded=0;orthogonalLoop=1;jettySize=auto;html=1;exitX=1;exitY=0.5;exitDx=0;exitDy=0;" parent="1" source="68kr9fZOocLpTPJreRbY-83" edge="1">
          <mxGeometry relative="1" as="geometry">
            <mxPoint x="480" y="530" as="targetPoint" />
          </mxGeometry>
        </mxCell>
        <mxCell id="68kr9fZOocLpTPJreRbY-83" value="Модуль доставки" style="html=1;whiteSpace=wrap;" parent="1" vertex="1">
          <mxGeometry x="340" y="576" width="50" height="50" as="geometry" />
        </mxCell>
        <mxCell id="68kr9fZOocLpTPJreRbY-89" style="edgeStyle=orthogonalEdgeStyle;rounded=0;orthogonalLoop=1;jettySize=auto;html=1;exitX=1;exitY=0.5;exitDx=0;exitDy=0;entryX=0.517;entryY=1.003;entryDx=0;entryDy=0;entryPerimeter=0;" parent="1" source="68kr9fZOocLpTPJreRbY-53" target="68kr9fZOocLpTPJreRbY-81" edge="1">
          <mxGeometry relative="1" as="geometry" />
        </mxCell>
        <mxCell id="68kr9fZOocLpTPJreRbY-90" style="edgeStyle=orthogonalEdgeStyle;rounded=0;orthogonalLoop=1;jettySize=auto;html=1;exitX=0.5;exitY=0;exitDx=0;exitDy=0;entryX=0.409;entryY=0.001;entryDx=0;entryDy=0;entryPerimeter=0;" parent="1" source="68kr9fZOocLpTPJreRbY-56" target="68kr9fZOocLpTPJreRbY-66" edge="1">
          <mxGeometry relative="1" as="geometry" />
        </mxCell>
        <mxCell id="68kr9fZOocLpTPJreRbY-92" style="edgeStyle=orthogonalEdgeStyle;rounded=0;orthogonalLoop=1;jettySize=auto;html=1;exitX=1;exitY=0.5;exitDx=0;exitDy=0;entryX=1;entryY=0.5;entryDx=0;entryDy=0;" parent="1" source="68kr9fZOocLpTPJreRbY-57" target="68kr9fZOocLpTPJreRbY-71" edge="1">
          <mxGeometry relative="1" as="geometry" />
        </mxCell>
        <mxCell id="68kr9fZOocLpTPJreRbY-93" value="Модуль БД" style="shape=umlFrame;whiteSpace=wrap;html=1;pointerEvents=0;" parent="1" vertex="1">
          <mxGeometry x="990" y="60" width="240" height="690" as="geometry" />
        </mxCell>
        <mxCell id="68kr9fZOocLpTPJreRbY-94" value="Клиент" style="ellipse;whiteSpace=wrap;html=1;" parent="1" vertex="1">
          <mxGeometry x="1070" y="70" width="140" height="70" as="geometry" />
        </mxCell>
        <mxCell id="68kr9fZOocLpTPJreRbY-95" style="edgeStyle=orthogonalEdgeStyle;rounded=0;orthogonalLoop=1;jettySize=auto;html=1;exitX=0.5;exitY=0;exitDx=0;exitDy=0;entryX=0.207;entryY=1;entryDx=0;entryDy=0;entryPerimeter=0;" parent="1" source="68kr9fZOocLpTPJreRbY-70" target="68kr9fZOocLpTPJreRbY-59" edge="1">
          <mxGeometry relative="1" as="geometry" />
        </mxCell>
        <mxCell id="68kr9fZOocLpTPJreRbY-96" value="Товары" style="ellipse;whiteSpace=wrap;html=1;" parent="1" vertex="1">
          <mxGeometry x="1060" y="210" width="140" height="70" as="geometry" />
        </mxCell>
        <mxCell id="68kr9fZOocLpTPJreRbY-97" value="Заказы" style="ellipse;whiteSpace=wrap;html=1;" parent="1" vertex="1">
          <mxGeometry x="1040" y="610" width="140" height="70" as="geometry" />
        </mxCell>
        <mxCell id="68kr9fZOocLpTPJreRbY-98" value="Администрирование заказов" style="ellipse;whiteSpace=wrap;html=1;" parent="1" vertex="1">
          <mxGeometry x="1060" y="380" width="140" height="70" as="geometry" />
        </mxCell>
        <mxCell id="68kr9fZOocLpTPJreRbY-100" value="" style="html=1;verticalAlign=bottom;endArrow=block;curved=0;rounded=0;entryX=0.042;entryY=0.267;entryDx=0;entryDy=0;entryPerimeter=0;" parent="1" target="68kr9fZOocLpTPJreRbY-94" edge="1">
          <mxGeometry width="80" relative="1" as="geometry">
            <mxPoint x="780" y="90" as="sourcePoint" />
            <mxPoint x="860" y="90" as="targetPoint" />
          </mxGeometry>
        </mxCell>
        <mxCell id="68kr9fZOocLpTPJreRbY-101" value="" style="html=1;verticalAlign=bottom;endArrow=block;curved=0;rounded=0;entryX=0.014;entryY=0.7;entryDx=0;entryDy=0;entryPerimeter=0;" parent="1" target="68kr9fZOocLpTPJreRbY-96" edge="1">
          <mxGeometry width="80" relative="1" as="geometry">
            <mxPoint x="870" y="259" as="sourcePoint" />
            <mxPoint x="950" y="259" as="targetPoint" />
          </mxGeometry>
        </mxCell>
        <mxCell id="68kr9fZOocLpTPJreRbY-106" style="edgeStyle=orthogonalEdgeStyle;rounded=0;orthogonalLoop=1;jettySize=auto;html=1;exitX=1;exitY=0.5;exitDx=0;exitDy=0;entryX=0;entryY=0.5;entryDx=0;entryDy=0;" parent="1" source="68kr9fZOocLpTPJreRbY-72" target="68kr9fZOocLpTPJreRbY-97" edge="1">
          <mxGeometry relative="1" as="geometry" />
        </mxCell>
        <mxCell id="68kr9fZOocLpTPJreRbY-107" value="" style="edgeStyle=orthogonalEdgeStyle;rounded=0;orthogonalLoop=1;jettySize=auto;html=1;exitX=0.5;exitY=0;exitDx=0;exitDy=0;entryX=0.207;entryY=1;entryDx=0;entryDy=0;entryPerimeter=0;" parent="1" source="68kr9fZOocLpTPJreRbY-78" target="68kr9fZOocLpTPJreRbY-70" edge="1">
          <mxGeometry relative="1" as="geometry">
            <mxPoint x="760" y="430" as="sourcePoint" />
            <mxPoint x="569" y="260" as="targetPoint" />
          </mxGeometry>
        </mxCell>
        <mxCell id="68kr9fZOocLpTPJreRbY-70" value="Подсистема работы заказов" style="swimlane;fontStyle=0;childLayout=stackLayout;horizontal=1;startSize=27;fillColor=none;horizontalStack=0;resizeParent=1;resizeParentMax=0;resizeLast=0;collapsible=1;marginBottom=0;whiteSpace=wrap;html=1;" parent="1" vertex="1">
          <mxGeometry x="560" y="300" width="140" height="100" as="geometry">
            <mxRectangle x="540" y="320" width="170" height="30" as="alternateBounds" />
          </mxGeometry>
        </mxCell>
        <mxCell id="68kr9fZOocLpTPJreRbY-71" value="Получение заказа" style="text;strokeColor=none;fillColor=none;align=left;verticalAlign=top;spacingLeft=4;spacingRight=4;overflow=hidden;rotatable=0;points=[[0,0.5],[1,0.5]];portConstraint=eastwest;whiteSpace=wrap;html=1;" parent="68kr9fZOocLpTPJreRbY-70" vertex="1">
          <mxGeometry y="27" width="140" height="26" as="geometry" />
        </mxCell>
        <mxCell id="68kr9fZOocLpTPJreRbY-72" value="Получение QR кода заказа" style="text;strokeColor=none;fillColor=none;align=left;verticalAlign=top;spacingLeft=4;spacingRight=4;overflow=hidden;rotatable=0;points=[[0,0.5],[1,0.5]];portConstraint=eastwest;whiteSpace=wrap;html=1;" parent="68kr9fZOocLpTPJreRbY-70" vertex="1">
          <mxGeometry y="53" width="140" height="47" as="geometry" />
        </mxCell>
        <mxCell id="68kr9fZOocLpTPJreRbY-108" style="edgeStyle=orthogonalEdgeStyle;rounded=0;orthogonalLoop=1;jettySize=auto;html=1;exitX=1;exitY=0.5;exitDx=0;exitDy=0;entryX=0.457;entryY=0.986;entryDx=0;entryDy=0;entryPerimeter=0;" parent="1" source="68kr9fZOocLpTPJreRbY-79" target="68kr9fZOocLpTPJreRbY-98" edge="1">
          <mxGeometry relative="1" as="geometry" />
        </mxCell>
      </root>
    </mxGraphModel>
  </diagram>
</mxfile>
